<svg xmlns="http://www.w3.org/2000/svg" width="159" height="40" viewBox="0 0 159 40">
  <g id="Grupo_85" data-name="Grupo 85" transform="translate(-604 -3910)">
    <g id="facebook" transform="translate(604 3910)">
      <circle id="Elipse_15" data-name="Elipse 15" cx="20" cy="20" r="20" transform="translate(0 0)" fill="#c5c5c5"/>
      <path id="Caminho_87" data-name="Caminho 87" d="M49.359,34.787H45.791V47.861H40.384V34.787H37.812V30.192h2.572V27.219c0-2.126,1.01-5.456,5.455-5.456l4.005.017v4.46H46.938a1.1,1.1,0,0,0-1.147,1.252v2.7h4.041Z" transform="translate(-24.331 -14.004)" fill="#fff"/>
    </g>
    <g id="instagram" transform="translate(663 3910)">
      <path id="Caminho_88" data-name="Caminho 88" d="M39.132,23.88H27.21a3.455,3.455,0,0,0-3.451,3.451V39.253A3.455,3.455,0,0,0,27.21,42.7H39.132a3.455,3.455,0,0,0,3.451-3.452V27.331A3.455,3.455,0,0,0,39.132,23.88ZM33.171,39.489a6.2,6.2,0,1,1,6.2-6.2A6.2,6.2,0,0,1,33.171,39.489Zm6.4-11.113a1.466,1.466,0,1,1,1.466-1.466A1.468,1.468,0,0,1,39.567,28.377Z" transform="translate(-13.171 -13.238)" fill="#c5c5c5"/>
      <path id="Caminho_89" data-name="Caminho 89" d="M40.428,36.971a3.578,3.578,0,1,0,3.578,3.578A3.583,3.583,0,0,0,40.428,36.971Z" transform="translate(-20.428 -20.495)" fill="#c5c5c5"/>
      <path id="Caminho_90" data-name="Caminho 90" d="M20,0A20,20,0,1,0,40,20,20,20,0,0,0,20,0ZM32.031,26.015a6.076,6.076,0,0,1-6.07,6.07H14.039a6.076,6.076,0,0,1-6.07-6.07V14.093a6.077,6.077,0,0,1,6.07-6.07H25.961a6.076,6.076,0,0,1,6.07,6.07Z" fill="#c5c5c5"/>
    </g>
    <g id="twitter" transform="translate(722.999 3910)">
      <circle id="Elipse_16" data-name="Elipse 16" cx="20" cy="20" r="20" transform="translate(0.001 0)" fill="#c5c5c5"/>
      <g id="Grupo_81" data-name="Grupo 81" transform="translate(8.95 12.132)">
        <path id="Caminho_91" data-name="Caminho 91" d="M48.4,36.27a9.538,9.538,0,0,1-2.746.752,4.794,4.794,0,0,0,2.1-2.644,9.57,9.57,0,0,1-3.036,1.16A4.785,4.785,0,0,0,36.579,39.9a13.57,13.57,0,0,1-9.854-5A4.786,4.786,0,0,0,28.2,41.285a4.747,4.747,0,0,1-2.165-.6c0,.02,0,.041,0,.061a4.783,4.783,0,0,0,3.835,4.687,4.8,4.8,0,0,1-2.159.083,4.786,4.786,0,0,0,4.466,3.32A9.65,9.65,0,0,1,25.1,50.816,13.6,13.6,0,0,0,46.032,39.362c0-.207,0-.414-.014-.618A9.694,9.694,0,0,0,48.4,36.27Z" transform="translate(-25.103 -34.028)" fill="#f1f2f2"/>
      </g>
    </g>
  </g>
</svg>
